<?xml version="1.0" encoding="utf-8"?>
<!-- Generator: Adobe Illustrator 19.1.0, SVG Export Plug-In . SVG Version: 6.00 Build 0)  -->
<svg version="1.1" xmlns="http://www.w3.org/2000/svg" xmlns:xlink="http://www.w3.org/1999/xlink" x="0px" y="0px"
	 viewBox="0 0 50 50" style="enable-background:new 0 0 50 50;" xml:space="preserve">
<metadata><?xpacket begin="﻿" id="W5M0MpCehiHzreSzNTczkc9d"?>
<x:xmpmeta xmlns:x="adobe:ns:meta/" x:xmptk="Adobe XMP Core 5.6-c067 79.157747, 2015/03/30-23:40:42        ">
   <rdf:RDF xmlns:rdf="http://www.w3.org/1999/02/22-rdf-syntax-ns#">
      <rdf:Description rdf:about=""/>
   </rdf:RDF>
</x:xmpmeta>
                                                                                                    
                                                                                                    
                                                                                                    
                                                                                                    
                                                                                                    
                                                                                                    
                                                                                                    
                                                                                                    
                                                                                                    
                                                                                                    
                                                                                                    
                                                                                                    
                                                                                                    
                                                                                                    
                                                                                                    
                                                                                                    
                                                                                                    
                                                                                                    
                                                                                                    
                                                                                                    
                           
<?xpacket end="w"?></metadata>
<style type="text/css">
	.st0{display:none;}
	.st1{display:inline;}
	.st2{fill:#FFFFFF;}
	.st3{display:inline;fill:#FFFFFF;}
</style>
<g id="Layer_1" class="st0">
	<circle class="st1" cx="25" cy="25" r="25"/>
</g>
<g id="OUTSIDE" class="st0">
	<g class="st1">
		<polygon class="st2" points="30.4,18.3 42.1,25 30.4,31.7 		"/>
		<polygon class="st2" points="19.6,18.3 7.9,25 19.6,31.7 		"/>
	</g>
</g>
<g id="INSIDE" class="st0">
	<polygon class="st3" points="8.9,18.3 20.6,25 8.9,31.7 	"/>
	<polygon class="st3" points="41.1,18.3 29.4,25 41.1,31.7 	"/>
</g>
<g id="FENCE" class="st0">
	<g class="st1">
		<rect x="13.9" y="11.9" class="st2" width="4.5" height="26.1"/>
		<rect x="31.6" y="11.9" class="st2" width="4.5" height="26.1"/>
	</g>
</g>
<g id="HEARTS" class="st0">
	<g class="st1">
		<path class="st2" d="M19.3,15.4c-4.4,0-7.8,3.3-6.7,8c0.9,3.5,4.3,6.5,7,8.8c0.4,0.3,5.1,4.6,5.4,4.4c0,0,0-18.1,0-18.1
			S21.7,15.4,19.3,15.4z"/>
		<path class="st2" d="M30.7,15.4c-2.4,0-5.7,3-5.7,3s0,18.1,0,18.1c0.3,0.2,5.1-4.1,5.4-4.4c2.6-2.3,6.1-5.3,7-8.8
			C38.6,18.8,35.2,15.4,30.7,15.4z"/>
	</g>
</g>
<g id="DIAMONDS">
	<rect x="16.5" y="16.5" transform="matrix(0.7071 0.7071 -0.7071 0.7071 25 -10.3553)" class="st2" width="17" height="17"/>
</g>
<g id="SPADES" class="st0">
</g>
<g id="CLUBS" class="st0">
</g>
</svg>
