<?xml version="1.0" encoding="utf-8"?>
<!-- Generator: Adobe Illustrator 19.1.0, SVG Export Plug-In . SVG Version: 6.00 Build 0)  -->
<svg version="1.1"
	 id="svg3775" inkscape:version="0.91 r13725" sodipodi:docname="blue.svg" xmlns:inkscape="http://www.inkscape.org/namespaces/inkscape" xmlns:cc="http://creativecommons.org/ns#" xmlns:dc="http://purl.org/dc/elements/1.1/" xmlns:rdf="http://www.w3.org/1999/02/22-rdf-syntax-ns#" xmlns:svg="http://www.w3.org/2000/svg" xmlns:sodipodi="http://sodipodi.sourceforge.net/DTD/sodipodi-0.dtd"
	 xmlns="http://www.w3.org/2000/svg" xmlns:xlink="http://www.w3.org/1999/xlink" x="0px" y="0px" viewBox="-256 133.2 223.2 311.8"
	 style="enable-background:new -256 133.2 223.2 311.8;" xml:space="preserve">
<metadata><?xpacket begin="﻿" id="W5M0MpCehiHzreSzNTczkc9d"?>
<x:xmpmeta xmlns:x="adobe:ns:meta/" x:xmptk="Adobe XMP Core 5.6-c067 79.157747, 2015/03/30-23:40:42        ">
   <rdf:RDF xmlns:rdf="http://www.w3.org/1999/02/22-rdf-syntax-ns#">
      <rdf:Description rdf:about=""/>
   </rdf:RDF>
</x:xmpmeta>
                                                                                                    
                                                                                                    
                                                                                                    
                                                                                                    
                                                                                                    
                                                                                                    
                                                                                                    
                                                                                                    
                                                                                                    
                                                                                                    
                                                                                                    
                                                                                                    
                                                                                                    
                                                                                                    
                                                                                                    
                                                                                                    
                                                                                                    
                                                                                                    
                                                                                                    
                                                                                                    
                           
<?xpacket end="w"?></metadata>
<style type="text/css">
	.st0{fill:#95C590;}
	.st1{fill:#2CADA4;}
	.st2{fill:#00A3AD;}
	.st3{fill:#69BB99;}
</style>
<g>
	<path class="st0" d="M-244.9,133.7h201c5.9,0,10.6,4.8,10.6,10.6v289.6c0,5.9-4.8,10.6-10.6,10.6h-201c-5.9,0-10.6-4.8-10.6-10.6
		V144.3C-255.5,138.4-250.7,133.7-244.9,133.7"/>
	<path class="st1" d="M-211,231.6l-13.4,3.2l9.4,40.1c-1.1,2.3-2.3,3.7-3.5,3.9c-0.1,0-0.2,0-0.3,0c-1.1,0-1.9-1.3-2.5-4l-9.1-38.7
		l-13.4,3.2l9.8,41.9c0.7,2.8,2.1,5.2,4.4,7.2c1.7,1.4,3.5,2.2,5.5,2.2c0.7,0,1.3-0.1,2-0.2c1.9-0.4,3.6-1.4,5.1-2.9
		c1.6-1.5,2.8-3.2,3.8-5.2l1.1,4.5l13.4-3.2L-211,231.6"/>
	<path class="st1" d="M-178.3,269.3c-1.1,0-2.4-0.7-3.9-2l-6.6-28.2c1-2.3,2.1-3.6,3.1-3.9c0.2,0,0.4-0.1,0.6-0.1c1.2,0,2,1,2.5,3
		l6.3,26.9c0.2,0.7,0.3,1.3,0.3,1.8c0,0.5-0.1,1-0.3,1.5c-0.3,0.5-0.7,0.8-1.3,1C-177.9,269.3-178.1,269.3-178.3,269.3
		 M-180.9,223.6c-0.8,0-1.6,0.1-2.3,0.3c-1.7,0.4-3.2,1.2-4.5,2.4c-1.3,1.2-2.3,2.7-3.1,4.3l-0.8-3.5l-13.4,3.2l15.7,66.8l13.4-3.2
		l-4.4-18.7c1.4,1.3,3,2.2,4.9,2.8c1,0.3,2,0.4,3,0.4c0.8,0,1.6-0.1,2.4-0.3c3-0.7,5.2-2.4,6.6-5.1c1.5-2.7,1.9-5.5,1.2-8.5
		l-7.2-30.7c-0.8-3.3-2.5-6-5.2-8C-176.7,224.3-178.7,223.6-180.9,223.6"/>
	<path class="st1" d="M-141,197.1l-13.4,3.2l4,17.1l-3.8,0.9l2.1,9l3.8-0.9l5.9,25.2c0.3,1.5,0.7,2.8,1,3.9c0.3,1.1,0.8,2.3,1.3,3.6
		c0.5,1.3,1.1,2.4,1.7,3.3c0.6,0.9,1.3,1.8,2.2,2.6c0.8,0.8,1.8,1.4,2.8,1.8c1,0.4,2.2,0.7,3.5,0.7c0.2,0,0.5,0,0.7,0
		c1.1,0,2.4-0.2,3.7-0.5c3.9-0.9,6.7-1.8,8.3-2.8l-2.4-10.4c-1,0.4-2.3,0.8-3.9,1.2c-0.5,0.1-0.9,0.2-1.3,0.2
		c-0.7,0-1.3-0.2-1.8-0.6c-0.7-0.6-1.2-1.6-1.6-3l-6.7-28.4l6.5-1.5l-2.1-9l-6.5,1.5L-141,197.1"/>
	<path class="st1" d="M-116.6,188.6l-13.4,3.2l16.8,71.8l13.4-3.2l-9.4-40.1c0.3-0.7,0.6-1.2,0.8-1.5c0.2-0.4,0.6-0.8,1.1-1.4
		c0.5-0.6,1-0.9,1.6-1c0.2,0,0.4-0.1,0.5-0.1c0.1,0,0.2,0,0.3,0c0.3,0.1,0.5,0.2,0.7,0.4c0.2,0.2,0.3,0.4,0.5,0.6
		c0.1,0.2,0.2,0.5,0.3,0.8c0.1,0.4,0.2,0.6,0.2,0.9c0.1,0.2,0.1,0.5,0.2,0.9c0.1,0.4,0.1,0.6,0.1,0.7l9,38.4l13.4-3.2l-9.8-41.9
		c-0.4-1.8-1.2-3.5-2.3-5c-1.1-1.5-2.5-2.7-4.2-3.5c-1.1-0.5-2.3-0.8-3.5-0.8c-0.6,0-1.2,0.1-1.9,0.2c-1.9,0.4-3.7,1.3-5.2,2.7
		c-1.6,1.3-2.9,2.9-3.8,4.6L-116.6,188.6"/>
	<path class="st1" d="M-69.2,219.5l-1.7-7.2c-0.6-2.6-0.1-4.1,1.6-4.5c0.2-0.1,0.5-0.1,0.7-0.1c1.4,0,2.4,1.1,2.9,3.4l1.7,7.2
		L-69.2,219.5 M-66.5,197c-1.6,0-3.3,0.2-5.2,0.6c-5.4,1.3-9,3.8-10.9,7.5c-1.9,3.7-2.2,8.3-0.9,13.9l5.2,22.1
		c1,4.3,3.4,7.5,7.2,9.5c2.5,1.3,5.1,2,7.9,2c1.4,0,2.9-0.2,4.4-0.5c4.4-1,7.8-3.3,10.3-6.7c2.5-3.5,3.2-7.4,2.2-11.7l-1.4-5.9
		l-13.2,3.1l1.3,5.7c0.7,3.1,0.2,4.9-1.7,5.4c-0.2,0-0.4,0.1-0.6,0.1c-1.4,0-2.4-1.3-3-3.9l-2.7-11.5l18.5-4.4l-2.5-10.8
		c-1.3-5.6-3.6-9.6-7-12C-60.7,197.8-63.4,197-66.5,197"/>
	<path class="st2" d="M-255.5,318.8v115.1c0,5.9,4.8,10.6,10.6,10.6h201c5.9,0,10.6-4.8,10.6-10.6V267.1L-255.5,318.8"/>
	<path class="st3" d="M-186.3,328.8c-1.7,0.1-3,0.3-3.7,0.5c-2.7,0.6-4.7,2.9-6,6.7l-1-4.2l-13.4,3.1l12.2,52l13.4-3.1l-8.2-34.9
		c-0.5-2.1-0.4-3.8,0.3-5.2c0.7-1.4,1.9-2.2,3.8-2.7c1-0.2,2.8-0.5,5.3-0.8L-186.3,328.8"/>
	<path class="st3" d="M-168.8,325.1l-13.4,3.2l12.2,52l13.4-3.2L-168.8,325.1 M-172.8,308l-13.4,3.2l2.9,12.6l13.4-3.2L-172.8,308"
		/>
	<polyline class="st3" points="-130.2,316 -142.8,319 -138.9,355.1 -152.3,321.2 -164.9,324.2 -141.9,373.6 -128.3,370.5 
		-130.2,316 	"/>
	<path class="st3" d="M-109.8,332.4l-1.7-7.2c-0.6-2.6-0.1-4.1,1.6-4.5c0.2-0.1,0.5-0.1,0.7-0.1c1.4,0,2.4,1.1,2.9,3.4l1.7,7.2
		L-109.8,332.4 M-107.1,309.9c-1.6,0-3.3,0.2-5.2,0.6c-5.4,1.3-9,3.8-10.9,7.5c-1.9,3.7-2.2,8.3-0.9,13.9l5.2,22.1
		c1,4.3,3.4,7.5,7.2,9.5c2.5,1.3,5.1,2,7.9,2c1.4,0,2.9-0.2,4.4-0.5c4.4-1,7.8-3.3,10.3-6.7c2.5-3.5,3.2-7.4,2.2-11.7l-1.4-5.9
		l-13.2,3.1l1.3,5.7c0.7,3.1,0.2,4.9-1.7,5.4c-0.2,0-0.4,0.1-0.6,0.1c-1.4,0-2.4-1.3-3-3.9l-2.7-11.5l18.5-4.4l-2.5-10.8
		c-1.3-5.6-3.6-9.6-7-12C-101.3,310.7-103.9,309.9-107.1,309.9"/>
	<path class="st3" d="M-66.9,300.8c-1.7,0.1-3,0.3-3.7,0.5c-2.7,0.6-4.7,2.9-6,6.7l-1-4.2l-13.4,3.1l12.2,52l13.4-3.1l-8.2-34.9
		c-0.5-2.1-0.4-3.8,0.3-5.2c0.7-1.4,1.9-2.2,3.8-2.7c1-0.2,2.8-0.5,5.3-0.8L-66.9,300.8"/>
</g>
</svg>
